<svg xmlns="http://www.w3.org/2000/svg" viewBox="0 0 37.417 46.577"><defs><style>.a,.b,.c{fill:none;stroke:#f2b903;stroke-miterlimit:10;stroke-width:2px;}.b,.c{stroke-linejoin:round;}.c{stroke-linecap:round;}</style></defs><g transform="translate(0.347 0.346)"><path class="a" d="M30.2,0h-15.4L0,14.8V39.363a5.23,5.23,0,0,0,5.215,5.214H30.2a5.229,5.229,0,0,0,5.214-5.214V5.214A5.229,5.229,0,0,0,30.2,0Z" transform="translate(0.654 0.654)"/><path class="b" d="M9.592,14.8a5.229,5.229,0,0,0,5.214-5.214V0L0,14.8Z" transform="translate(0.654 0.655)"/><path class="c" d="M0,0H22.16" transform="translate(6.848 36.86)"/><path class="c" d="M0,0H22.16" transform="translate(6.848 29.927)"/><path class="c" d="M0,0H22.16" transform="translate(6.848 22.994)"/></g></svg>