<svg xmlns="http://www.w3.org/2000/svg" viewBox="0 0 48.774 40.709"><defs><style>.a{fill:none;stroke:#f2b903;stroke-linecap:round;stroke-linejoin:round;stroke-miterlimit:10;stroke-width:2px;}</style></defs><g transform="translate(0.193 0.193)"><path class="a" d="M28.226,0H4.032A4.032,4.032,0,0,0,0,4.032V21.774a4.032,4.032,0,0,0,4.032,4.032H8.064v6.452l8.064-6.452h12.1a4.032,4.032,0,0,0,4.032-4.032V4.032A4.032,4.032,0,0,0,28.226,0Z" transform="translate(0.806 0.806)"/><path class="a" d="M0,25.043a4,4,0,0,0,2.344.763h12.1L22.5,32.258V25.806h4.032a4.032,4.032,0,0,0,4.032-4.032V4.032A4.032,4.032,0,0,0,26.537,0H20.892" transform="translate(17.011 7.258)"/></g></svg>