<svg xmlns="http://www.w3.org/2000/svg" viewBox="0 0 106.88 106.88"><defs><style>.cls-1{fill:#8659f2;}.cls-2,.cls-3{fill:none;stroke-linecap:round;stroke-linejoin:round;stroke-width:2px;}.cls-2{stroke:#000;}.cls-3{stroke:#262626;}</style></defs><title>icon-rareAsset 2</title><g id="Layer_2" data-name="Layer 2"><g id="Layer_1-2" data-name="Layer 1"><g id="Sell-Stuff"><circle id="Oval-2" class="cls-1" cx="53.44" cy="53.44" r="53.44"/></g><g id="Page-1"><polyline id="Stroke-1" class="cls-2" points="47.48 40.42 47.48 37.56 66.06 37.56 66.06 67.58 47.48 67.58 47.48 61.86"/><g id="Group-10"><path id="Stroke-2" class="cls-3" d="M41.76,66.47v.79a4.25,4.25,0,0,1,.32,6h.8a4.24,4.24,0,0,1,6.35,0H50a4.24,4.24,0,0,1,6.35,0h.8a4.24,4.24,0,0,1,6.35,0h.8a4.24,4.24,0,0,1,6.35,0h.79a4.25,4.25,0,0,1,.32-6v-.79a4.24,4.24,0,0,1,0-6.35v-.8a4.24,4.24,0,0,1,0-6.35v-.8a4.24,4.24,0,0,1,0-6.35V45a4.24,4.24,0,0,1,0-6.35v-.8a4.23,4.23,0,0,1-.32-6h-.79a4.24,4.24,0,0,1-6.35,0h-.8a4.24,4.24,0,0,1-6.35,0h-.8a4.24,4.24,0,0,1-6.35,0h-.79a4.24,4.24,0,0,1-6.35,0h-.8a4.23,4.23,0,0,1-.32,6v.8a4.25,4.25,0,0,1,1.43,3.17"/><path id="Stroke-4" class="cls-3" d="M31.76,44.35c4.17,0,4.17,3.58,8.33,3.58s4.17-3.58,8.34-3.58,4.17,3.58,8.34,3.58"/><path id="Stroke-6" class="cls-3" d="M31.76,51.5c4.17,0,4.17,3.57,8.33,3.57s4.17-3.57,8.34-3.57,4.17,3.57,8.34,3.57"/><path id="Stroke-8" class="cls-3" d="M31.76,58.65c4.17,0,4.17,3.57,8.33,3.57s4.17-3.57,8.34-3.57,4.17,3.57,8.34,3.57"/></g></g></g></g></svg>