<svg xmlns="http://www.w3.org/2000/svg" viewBox="0 0 146 146"><defs><style>.cls-1{fill:#8659f2;}.cls-2{fill:none;stroke:#262626;stroke-linecap:round;stroke-linejoin:round;stroke-width:2px;}</style></defs><title>icon-flipAsset 3</title><g id="Layer_2" data-name="Layer 2"><g id="Layer_1-2" data-name="Layer 1"><circle id="Oval-2-Copy-5" class="cls-1" cx="73" cy="73" r="73"/><g id="Page-1"><path id="Stroke-1" class="cls-2" d="M76.53,50.27,89.32,63.06"/><g id="Group-12"><path id="Stroke-2" class="cls-2" d="M73.34,56.66C71.05,59.77,61.18,72,55.75,77.44l6.4,6.4"/><path id="Stroke-4" class="cls-2" d="M83.73,66.25c-3.11,2.29-16.16,12.16-21.58,17.59"/><path id="Stroke-6" class="cls-2" d="M59,80.64l-3.2,3.2a6,6,0,0,0,0,8c2,2.07,7.45,2.07,9.59,0L79.73,77.44a6,6,0,0,1,8,0,5.77,5.77,0,0,1,0,8l-6.39,6.39"/><path id="Stroke-8" class="cls-2" d="M71.74,67.85l-1.6,1.6"/><path id="Stroke-10" class="cls-2" d="M89.71,63.44a9.59,9.59,0,1,1,0-13.56A9.58,9.58,0,0,1,89.71,63.44Z"/></g></g></g></g></svg>