<svg xmlns="http://www.w3.org/2000/svg" viewBox="0 0 56 56"><defs><style>.a{fill:#8659f2;}.b{fill:#262626;}</style></defs><circle class="a" cx="28" cy="28" r="28"/><path class="b" d="M10.023,10.036h5.009c-.2,1.683-.4,3.343-.6,5.016h-4.4V30.089H4V15.068H0v-5.02H4c0-.105,0-.193,0-.28,0-1-.013-1.991.006-2.985a7.617,7.617,0,0,1,.9-3.61A5.885,5.885,0,0,1,9.309.162a12.562,12.562,0,0,1,1.87-.15C12.366-.011,13.553.006,14.74.006h.281V5.022c-.1,0-.193,0-.29,0-1.036.016-2.072.029-3.107.051a1.894,1.894,0,0,0-.443.078A1.379,1.379,0,0,0,10.03,6.665c-.028,1.111-.007,2.223-.007,3.371" transform="translate(20.484 12.955)"/></svg>