<svg xmlns="http://www.w3.org/2000/svg" viewBox="0 0 39.588 35.701"><defs><style>.a{fill:none;stroke:#f2b903;stroke-linecap:round;stroke-linejoin:round;stroke-miterlimit:10;stroke-width:2px;}</style></defs><g transform="translate(0.352 0.353)"><path class="a" d="M0,0V8.981a3.332,3.332,0,0,0,3.332,3.332H31.664A3.332,3.332,0,0,0,35,8.981V0" transform="translate(1.944 15.554)"/><path class="a" d="M22.035,2.592H0C0,1.161,1.518,0,3.389,0H18.645C20.517,0,22.035,1.161,22.035,2.592Z" transform="translate(8.425 31.756)"/><path class="a" d="M0,0H35" transform="translate(1.944 23.979)"/><path class="a" d="M0,3.24V0" transform="translate(21.387 27.867)"/><path class="a" d="M0,0V3.24" transform="translate(17.498 27.867)"/><path class="a" d="M.516,10.137,5.567,1.389A3.315,3.315,0,0,1,8.286,0H29.3a3.315,3.315,0,0,1,2.719,1.389l5.051,8.748a2.833,2.833,0,0,1,.516,1.625v1.561c0,1.7-1.128,1.749-2.859,2.132a3.727,3.727,0,0,1-4.658-3.488,3.763,3.763,0,0,1-7.518,0,3.763,3.763,0,0,1-7.518,0,3.676,3.676,0,0,1-3.759,3.586,3.676,3.676,0,0,1-3.759-3.586,3.727,3.727,0,0,1-4.658,3.488A3.753,3.753,0,0,1,0,11.763,2.833,2.833,0,0,1,.516,10.137Z" transform="translate(0.648 0.648)"/><path class="a" d="M0,11.966,3.922,0" transform="translate(8.166 0.649)"/><path class="a" d="M0,11.966,1.308,0" transform="translate(15.684 0.649)"/><path class="a" d="M1.308,11.966,0,0" transform="translate(21.893 0.649)"/><path class="a" d="M3.922,11.966,0,0" transform="translate(26.797 0.649)"/></g></svg>