<svg xmlns="http://www.w3.org/2000/svg" xmlns:xlink="http://www.w3.org/1999/xlink" viewBox="0 0 106.88 106.88"><defs><style>.cls-1{fill:#fff;}.cls-2{fill:#8659f2;}.cls-3{fill:none;stroke:#262626;stroke-linecap:round;stroke-width:2px;}.cls-4{mask:url(#mask);}</style><mask id="mask" x="51.58" y="74.55" width="5.16" height="2" maskUnits="userSpaceOnUse"><g id="mask-46"><polygon id="path-45" class="cls-1" points="52.58 75.55 55.74 75.55 55.74 76.34 52.58 76.34 52.58 75.55"/></g></mask></defs><title>icon-solvesAsset 3</title><g id="Layer_2" data-name="Layer 2"><g id="Layer_1-2" data-name="Layer 1"><g id="Sell-Stuff"><circle id="Oval-2" class="cls-2" cx="53.44" cy="53.44" r="53.44" transform="translate(-22.14 53.44) rotate(-45)"/></g><g id="Page-1"><path id="Stroke-1" class="cls-3" d="M68.39,45.5a14.24,14.24,0,0,0-28.47,0c0,.15,0,.3,0,.46a10.4,10.4,0,0,0,0,1.12,14.5,14.5,0,0,0,5.23,10.1,1.91,1.91,0,0,1,.66,1.11c.39,2.09,1.51,7.77,4.39,7.77h7.91c2.88,0,4-5.68,4.39-7.77a1.91,1.91,0,0,1,.66-1.11c3-2.54,5.23-5.9,5.23-10.1,0-.26,0-.51,0-.77S68.39,45.77,68.39,45.5Z"/><path id="Stroke-3" class="cls-3" d="M49.41,69.23H58.9"/><path id="Stroke-5" class="cls-3" d="M51,72.39h6.33"/><g id="Group-9"><g class="cls-4"><path id="Stroke-7" class="cls-3" d="M52.58,75.55h3.16"/></g></g></g></g></g></svg>