<svg xmlns="http://www.w3.org/2000/svg" viewBox="0 0 39.436 39.436"><defs><style>.a{fill:none;stroke:#f2b903;stroke-linecap:round;stroke-linejoin:round;stroke-miterlimit:10;stroke-width:2px;}</style></defs><g transform="translate(0.354 0.355)"><path class="a" d="M14.2,6.454C14.2,2.859,10.7,0,7.1,0S0,2.859,0,6.454Z" transform="translate(12.264 7.1)"/><path class="a" d="M14.2,6.454C14.2,2.859,10.7,0,7.1,0S0,2.859,0,6.454Z" transform="translate(0.645 31.627)"/><path class="a" d="M14.2,6.454C14.2,2.859,10.7,0,7.1,0S0,2.859,0,6.454Z" transform="translate(23.882 31.627)"/><path class="a" d="M0,12.909V0H2.582" transform="translate(7.1 8.391)"/><path class="a" d="M0,0H2.582V12.909" transform="translate(29.045 8.391)"/><path class="a" d="M6.454,3.227A3.227,3.227,0,1,1,3.227,0,3.227,3.227,0,0,1,6.454,3.227Z" transform="translate(16.136 0.645)"/><path class="a" d="M6.454,3.227A3.227,3.227,0,1,1,3.227,0,3.227,3.227,0,0,1,6.454,3.227Z" transform="translate(4.518 25.172)"/><path class="a" d="M6.454,3.227A3.227,3.227,0,1,1,3.227,0,3.227,3.227,0,0,1,6.454,3.227Z" transform="translate(27.754 25.172)"/></g></svg>