<svg xmlns="http://www.w3.org/2000/svg" viewBox="0 0 106.88 106.88"><defs><style>.cls-1{fill:#8659f2;}.cls-2{fill:none;stroke:#262626;stroke-linecap:round;stroke-linejoin:round;stroke-width:2px;}</style></defs><title>icon-handmadeAsset 3</title><g id="Layer_2" data-name="Layer 2"><g id="Layer_1-2" data-name="Layer 1"><g id="Sell-Stuff"><circle id="Oval-2" class="cls-1" cx="53.44" cy="53.44" r="53.44"/></g><g id="Page-1"><path id="Stroke-1" class="cls-2" d="M68.86,50.67a7.52,7.52,0,0,1-11,.36c-2.93-2.93-3-7.68.37-11,2.95-2.91,8.85-5.91,16.52-5.91C70.87,38,71.7,47.64,68.86,50.67Z"/><path id="Stroke-3" class="cls-2" d="M44.12,40.75a3.75,3.75,0,0,0,5.31-5.31C48,34,44.82,32.67,41,32.67,42.93,34.62,42.65,39.28,44.12,40.75Z"/><path id="Stroke-5" class="cls-2" d="M49.43,40.75c2.82,2.82,6.24,18.36,6.24,18.36S58.49,48.94,66,41.48"/><path id="Stroke-7" class="cls-2" d="M32.17,70.85h5.88S40.57,60.93,41,56.17c-1.46-1.39-8.81-1.47-8.81-1.47Z"/><path id="Stroke-9" class="cls-2" d="M61.54,66.45,68.89,65a5.31,5.31,0,0,1,5.87,2.94l-10.28,4.4c-7.71,3.17-8.07,2.86-11.75,1.47l-13.95-4.4"/><path id="Stroke-11" class="cls-2" d="M41,57.64,58.61,62c2.47.62,2.93,1.86,2.93,4.41l-2.2.73a4.55,4.55,0,0,1-2.2,0L48.33,65"/></g></g></g></svg>