<svg xmlns="http://www.w3.org/2000/svg" viewBox="0 0 51.693 31.987"><defs><style>.a{fill:none;stroke:#f2b903;stroke-linecap:round;stroke-linejoin:round;stroke-miterlimit:10;stroke-width:2px;}</style></defs><g transform="translate(0.143 0.143)"><path class="a" d="M0,15.589c.78.658,3.151,3.331,4.284,4.284,4.1,3.432,9.445,7.163,10.281,7.711a4.619,4.619,0,0,0,2.57.857c.978,0,2.255.012,2.57-.857,1.6,1.458,4.09-.48,4.284-2.57,1.3,1.215,4.525-.334,4.284-2.57,1.547,1.068,4.584-.163,3.427-2.57-1.45-3.018-10.4-9.543-13.708-12.852-1.885.679-2,1.571-3.427,1.714-1.042,1.558-2.483,2.589-5.141,1.714s-.153-4.988,1.714-6.854C14.846-.113,17.07-.92,21.419,1.024S29.13,4.451,29.13,4.451" transform="translate(8.568 2.403)"/><path class="a" d="M10.281,0H0" transform="translate(11.138 4.284)"/><path class="a" d="M0,1.714,2.57,0" transform="translate(40.268 20.563)"/><path class="a" d="M6.854,6.854C5.742,5.977,0,0,0,0" transform="translate(29.987 17.992)"/><path class="a" d="M6,6C4.6,4.877.581.631,0,0" transform="translate(26.56 21.419)"/><path class="a" d="M5.141,5.141C3.7,3.926,1.17,1.253,0,0" transform="translate(23.133 24.846)"/><path class="a" d="M0,18.887c2.7,0,6.854-.038,6.854-.038S9.8,7.272,10.281,1.714C8.568,0,0,0,0,0Z" transform="translate(0.857 0.857)"/><path class="a" d="M0,1.714C1.451,4.047,6.081,16.051,6.854,18.849h6.854V0A49.4,49.4,0,0,0,0,1.714Z" transform="translate(36.841 2.57)"/></g></svg>