<svg xmlns="http://www.w3.org/2000/svg" viewBox="0 0 146 146"><defs><style>.cls-1{fill:#8659f2;}.cls-2{fill:none;stroke:#262626;stroke-linecap:round;stroke-linejoin:round;stroke-width:2px;}</style></defs><title>icon-flipAsset 5</title><g id="Layer_2" data-name="Layer 2"><g id="Layer_1-2" data-name="Layer 1"><circle id="Oval-2-Copy-3" class="cls-1" cx="73" cy="73" r="73"/><path class="cls-2" d="M101.21,72c0,2.44-2.12,6.35-5.08,6.35s-3.79-2-6.86-2c-2.29,0-.38,9,.7,13.27A2,2,0,0,1,88,92H76.63c-1.1,0-1.61-.82-.82-1.59a7.19,7.19,0,0,0,2-4.76c0-2.54-2.33-3.81-6.36-3.81s-6.35,1.27-6.35,3.81a7.31,7.31,0,0,0,2.16,4.76c.79.77.28,1.59-.82,1.59H55.09a2,2,0,0,1-2-2.48c1.08-4.32,2.86-13.27.57-13.27-3.07,0-3.39,2.54-6.35,2.54s-5.08-3.91-5.08-6.35,2.12-6.35,5.08-6.35,3.28,2.54,6.35,2.54c2.29,0,.47-8.44-.61-12.75A2,2,0,0,1,55,53.41H66.42a1.21,1.21,0,0,1,.82,2.1,6,6,0,0,0-2.11,4.25c0,2.54,2.33,3.81,6.35,3.81s6.36-1.27,6.36-3.81a6,6,0,0,0-2.12-4.25,1.21,1.21,0,0,1,.83-2.1H87.92a2,2,0,0,1,2,2.49c-1.08,4.31-2.9,12.75-.61,12.75,3.07,0,3.89-3.05,6.86-3.05S101.21,69.52,101.21,72Z"/></g></g></svg>