<svg xmlns="http://www.w3.org/2000/svg" viewBox="0 0 56 56"><defs><style>.a{fill:#8659f2;}.b{fill:#262626;}</style></defs><circle class="a" cx="28" cy="28" r="28"/><g transform="translate(12 11)"><path class="b" d="M8.71,17.406h0A8.678,8.678,0,0,1,0,8.682,8.681,8.681,0,0,1,8.7,0a8.678,8.678,0,0,1,8.709,8.725,8.68,8.68,0,0,1-8.7,8.681ZM8.7,3.055h0a5.648,5.648,0,0,0-.023,11.3H8.7a5.648,5.648,0,1,0,0-11.3Z" transform="translate(8.222 8.46)"/><path class="b" d="M17.011,33.814c-2.434,0-4.99-.02-7.6-.059a9.358,9.358,0,0,1-6.358-2.4,9.222,9.222,0,0,1-3-6.958c-.08-4.652-.081-9.526,0-14.9A9.409,9.409,0,0,1,2.315,3.306,9.177,9.177,0,0,1,8.415.227C8.969.158,9.536.112,10.083.067c.259-.021.528-.043.791-.067H22.852c.154.013.308.027.462.042.322.03.655.062.983.078,5.3.258,8.7,3.417,9.318,8.665.06.507.1,1.023.142,1.522.018.218.035.436.055.654V22.938c-.014.165-.029.33-.043.5v.008c-.026.292-.054.594-.074.893a10.038,10.038,0,0,1-2.422,6.416,9.22,9.22,0,0,1-6.957,3C21.959,33.793,19.5,33.814,17.011,33.814ZM16.845,3.105h0c-2.565,0-5.157.059-7.7.175C5.459,3.45,3.5,5.419,3.155,9.3c-.22,2.464-.152,12.311-.049,14.84.165,4.066,2.268,6.309,6.081,6.485,2.5.115,5.061.174,7.6.174,2.582,0,5.207-.061,7.8-.18,3.776-.174,5.777-2.18,5.949-5.964.229-5.075.227-10.274-.007-15.455-.171-3.755-2.167-5.746-5.932-5.917-2.57-.117-5.178-.176-7.75-.176Z" transform="translate(0.061 0.214)"/><path class="b" d="M2.04,4.072A2.036,2.036,0,1,1,2.066,0,2.017,2.017,0,0,1,4.072,2.018,2.031,2.031,0,0,1,2.04,4.072" transform="translate(23.933 6.083)"/></g></svg>