<svg xmlns="http://www.w3.org/2000/svg" viewBox="0 0 146 146"><defs><style>.cls-1{fill:#8659f2;}.cls-2{fill:none;stroke:#000;stroke-linecap:round;stroke-linejoin:round;}</style></defs><title>icon-flipAsset 6</title><g id="Layer_2" data-name="Layer 2"><g id="Layer_1-2" data-name="Layer 1"><circle id="Oval-2-Copy-4" class="cls-1" cx="73" cy="73" r="73"/><g id="Page-1"><path id="Stroke-1" class="cls-2" d="M71.8,54.94c0,2-5,3.94-11.81,3.94S48.18,57,48.18,54.94,53.2,51,60,51,71.8,52.9,71.8,54.94Z"/><path id="Stroke-3" class="cls-2" d="M71.8,57.89v4.93c0,2-5,3.93-11.81,3.93s-11.81-1.9-11.81-3.93V57.89"/><path id="Stroke-5" class="cls-2" d="M71.8,54.94v3.94c0,2-5,3.94-11.81,3.94s-11.81-1.9-11.81-3.94V54.94"/><path id="Stroke-7" class="cls-2" d="M71.8,59.86v6.89c0,2-5,3.94-11.81,3.94s-11.81-1.9-11.81-3.94V59.86"/><path id="Stroke-9" class="cls-2" d="M105.27,82.5c0,2-7,3.94-13.78,3.94s-13.78-2.88-13.78-4.92,7-3,13.78-3S105.27,80.46,105.27,82.5Z"/><path id="Stroke-11" class="cls-2" d="M105.27,82.5v3.94c0,2-7,3.93-13.78,3.93s-13.78-1.89-13.78-3.93V81.52"/><path id="Stroke-13" class="cls-2" d="M105.27,86.44v3.93c0,2-7,3.94-13.78,3.94s-13.78-1.9-13.78-3.94V86.44"/><path id="Stroke-15" class="cls-2" d="M105.27,89.39v4.92c0,2-7,3.94-13.78,3.94s-13.78-1.9-13.78-3.94V89.39"/><path id="Stroke-17" class="cls-2" d="M71.8,66.75v7.88c0,2-5,3.93-11.81,3.93s-11.81-1.89-11.81-3.93V67"/><path id="Stroke-19" class="cls-2" d="M71.8,68.72v2c0,2-5,3.94-11.81,3.94s-11.81-1.9-11.81-3.94v-2"/><path id="Stroke-21" class="cls-2" d="M48.18,74.63V70.94"/><path id="Stroke-23" class="cls-2" d="M71.8,70.69v3.94"/><path id="Stroke-25" class="cls-2" d="M71.8,74.63v3.93c0,2-5,3.94-11.81,3.94s-11.81-1.9-11.81-3.94V74.63"/><path id="Stroke-27" class="cls-2" d="M71.8,78.56V82.5c0,2-5,3.94-11.81,3.94s-11.81-1.9-11.81-3.94V78.56"/><path id="Stroke-29" class="cls-2" d="M71.8,82.5v3.94c0,2-5,3.93-11.81,3.93s-11.81-1.89-11.81-3.93V82.5"/><path id="Stroke-31" class="cls-2" d="M71.8,86.44v3c0,2-5,4.92-11.81,4.92s-11.81-2.63-11.81-4.67v-3.2"/></g></g></g></svg>