<svg id="Group_21" data-name="Group 21" xmlns="http://www.w3.org/2000/svg" viewBox="0 0 56 56">
  <defs>
    <style>
      .cls-1 {
        fill: #8659f2;
      }

      .cls-2 {
        fill: #262626;
      }
    </style>
  </defs>
  <circle id="Oval_5_Copy_2" data-name="Oval 5 Copy 2" class="cls-1" cx="28" cy="28" r="28"/>
  <path id="Fill_1" data-name="Fill 1" class="cls-2" d="M0,20.521v-.579a2.361,2.361,0,0,1,.591-.327,7.673,7.673,0,0,0,5.088-3.953c.913-1.574.687-2.061-1.04-2.646a4.928,4.928,0,0,1-1.427-.723A.927.927,0,0,1,3.4,10.646a1.648,1.648,0,0,1,1.5-.028,1.674,1.674,0,0,0,1.513.112c-.045-.783-.11-1.549-.129-2.317a8.3,8.3,0,0,1,.888-4.808A8.056,8.056,0,0,1,17.532.858a6.389,6.389,0,0,1,3.921,5.631c.056,1.267-.009,2.541-.074,3.809-.026.52.206.621.608.534s.77-.241,1.158-.348a1.505,1.505,0,0,1,1.767.739c.208.53-.078,1.05-.86,1.427-.535.258-1.114.424-1.659.663-.811.356-1.008.753-.655,1.557A7.847,7.847,0,0,0,27.072,19.6a4,4,0,0,1,.706.345v.579a3.512,3.512,0,0,1-2.52,1.246c-.885.13-1.455.407-1.511,1.388-.029.5-.4.67-.865.621-.21-.022-.42-.057-.628-.1a4.889,4.889,0,0,0-4.161.845,11.965,11.965,0,0,1-1.612,1.014,4.741,4.741,0,0,1-3.96.444,10.914,10.914,0,0,1-2.7-1.4,5.2,5.2,0,0,0-4.432-.862c-1.038.237-1.257.086-1.458-.964a.94.94,0,0,0-.906-.884A4.3,4.3,0,0,1,0,20.521" transform="translate(14.111 14.882)"/>
</svg>
