<svg xmlns="http://www.w3.org/2000/svg" xmlns:xlink="http://www.w3.org/1999/xlink" viewBox="0 0 36.759 36.76"><defs><style>.a,.b{fill:none;}.b{stroke:#f2b903;stroke-linecap:round;stroke-linejoin:round;stroke-miterlimit:10;stroke-width:2px;}.c{clip-path:url(#a);}.d{fill:#f2b903;}</style><clipPath id="a"><path class="a" d="M0,36H36V0H0Z"/></clipPath></defs><g transform="translate(0.38 0.378)"><path class="b" d="M32.276,34.759H2.483A2.484,2.484,0,0,1,0,32.276V2.483A2.484,2.484,0,0,1,2.483,0H32.276a2.484,2.484,0,0,1,2.483,2.483V32.276A2.484,2.484,0,0,1,32.276,34.759Z" transform="translate(0.621 0.621)"/><path class="b" d="M0,0H34.759" transform="translate(0.621 5.586)"/><path class="a" d="M0,36H36V0H0Z"/><g class="c"><path class="b" d="M0,2.483H8.69V0H0Z" transform="translate(8.069 29.173)"/><path class="b" d="M0,2.483H8.69V0H0Z" transform="translate(19.242 29.173)"/><path class="b" d="M6.207,3.1A3.1,3.1,0,1,1,3.1,0,3.1,3.1,0,0,1,6.207,3.1Z" transform="translate(14.276 13.035)"/><path class="b" d="M8.069,9.931a6.821,6.821,0,0,1,5.982,3.539,8.069,8.069,0,1,0-11.965,0A6.821,6.821,0,0,1,8.069,9.931Z" transform="translate(9.311 9.311)"/><path class="b" d="M16.138,8.069A8.069,8.069,0,1,1,8.069,0,8.069,8.069,0,0,1,16.138,8.069Z" transform="translate(9.311 9.311)"/><path class="d" d="M1.241.621A.621.621,0,1,1,.621,0a.621.621,0,0,1,.621.621" transform="translate(2.483 2.483)"/><path class="d" d="M1.241.621A.621.621,0,1,1,.621,0a.621.621,0,0,1,.621.621" transform="translate(4.966 2.483)"/><path class="d" d="M1.241.621A.621.621,0,1,1,.621,0a.621.621,0,0,1,.621.621" transform="translate(7.448 2.483)"/></g></g></svg>