<svg xmlns="http://www.w3.org/2000/svg" viewBox="0 0 106.88 106.88"><defs><style>.cls-1{fill:#8659f2;}.cls-2{fill:none;stroke:#262626;stroke-linecap:round;stroke-linejoin:round;stroke-width:2px;}</style></defs><title>icon-flipAsset 4</title><g id="Layer_2" data-name="Layer 2"><g id="Layer_1-2" data-name="Layer 1"><g id="Sell-Stuff"><circle id="Oval-2" class="cls-1" cx="53.44" cy="53.44" r="53.44"/></g><g id="Group-47"><g id="Page-1"><path id="Stroke-3" class="cls-2" d="M56.38,41.28,68.26,53.16H59.51a2.5,2.5,0,1,0,0,5H77V40.66a2.5,2.5,0,0,0-5,0v8.75L60.13,37.53a2.65,2.65,0,0,0-3.75,3.75Z"/></g><g id="Page-1-2" data-name="Page-1"><path id="Stroke-3-2" data-name="Stroke-3" class="cls-2" d="M53.61,62.47,41.73,50.59h8.75a2.5,2.5,0,0,0,0-5H33v17.5a2.5,2.5,0,0,0,5,0V54.34L49.86,66.22a2.65,2.65,0,0,0,3.75-3.75Z"/></g></g></g></g></svg>