<svg xmlns="http://www.w3.org/2000/svg" viewBox="0 0 56 56"><defs><style>.a{fill:#8659f2;}.b{fill:#262626;}</style></defs><circle class="a" cx="28" cy="28" r="28"/><path class="b" d="M26.733,2.6a.175.175,0,0,1-.054.116,11.05,11.05,0,0,1-2.562,2.644.184.184,0,0,0-.087.176,14.909,14.909,0,0,1-.024,1.65,15.657,15.657,0,0,1-.513,2.992,16.248,16.248,0,0,1-3.526,6.565,14.791,14.791,0,0,1-7.8,4.636,16.843,16.843,0,0,1-3.46.416,15.574,15.574,0,0,1-5.541-.89A15.474,15.474,0,0,1,.035,19.387.094.094,0,0,1,0,19.349,11.35,11.35,0,0,0,4.256,19a11.034,11.034,0,0,0,3.837-1.944,5.529,5.529,0,0,1-5.139-3.824,5.612,5.612,0,0,0,2.472-.093,5.5,5.5,0,0,1-3.663-2.65,5.375,5.375,0,0,1-.737-2.817A5.515,5.515,0,0,0,3.5,8.356a5.484,5.484,0,0,1-2.418-4.23,5.353,5.353,0,0,1,.725-3.1,15.738,15.738,0,0,0,11.353,5.75,5.831,5.831,0,0,1-.14-1.116A5.272,5.272,0,0,1,13.678,2.9a5.508,5.508,0,0,1,8.736-1.279.291.291,0,0,0,.306.09A11.244,11.244,0,0,0,25.941.459c.024-.014.049-.026.093-.05a5.582,5.582,0,0,1-2.411,3.038,11.3,11.3,0,0,0,1.6-.311A11.825,11.825,0,0,0,26.733,2.6" transform="translate(15.633 17.099)"/></svg>