<svg xmlns="http://www.w3.org/2000/svg" viewBox="0 0 41.578 38.849"><defs><style>.a{fill:none;stroke:#f2b903;stroke-linecap:round;stroke-linejoin:round;stroke-miterlimit:10;stroke-width:2px;}</style></defs><g transform="translate(0.317 0.317)"><path class="a" d="M0,8.34v3.336a3.375,3.375,0,0,0,3.412,3.337,3.375,3.375,0,0,0,3.412-3.337V3.336A3.374,3.374,0,0,0,3.412,0,3.374,3.374,0,0,0,0,3.336" transform="translate(18.424 0.683)"/><path class="a" d="M18.442,5.459,14.768,32.4l7.768-1.013L21.172,0,.018,2.047,0,2.106Z" transform="translate(17.724 2.047)"/><path class="a" d="M0,0V4.036L13.257,2.305Z" transform="translate(8.871 33.496)"/><path class="a" d="M5.459,0,35.484,5.459,31.39,35.484,0,30.025Z" transform="translate(0.682 2.047)"/></g></svg>