<svg xmlns="http://www.w3.org/2000/svg" viewBox="0 0 39.044 41.777"><defs><style>.a{fill:none;stroke:#f2b903;stroke-linecap:round;stroke-linejoin:round;stroke-miterlimit:10;stroke-width:2px;}</style></defs><g transform="translate(0.316 0.314)"><path class="a" d="M6.816,3.458A3.432,3.432,0,0,1,3.408,6.916,3.433,3.433,0,0,1,0,3.458,3.433,3.433,0,0,1,3.408,0,3.432,3.432,0,0,1,6.816,3.458Z" transform="translate(3.452 2.029)"/><path class="a" d="M6.858,3.429A3.429,3.429,0,1,1,3.429,0,3.429,3.429,0,0,1,6.858,3.429Z" transform="translate(28.12 2.057)"/><path class="a" d="M6.858,3.429A3.429,3.429,0,1,1,3.429,0,3.429,3.429,0,0,1,6.858,3.429Z" transform="translate(15.776 0.686)"/><path class="a" d="M8.959.126A2.385,2.385,0,0,0,8.233,0H4.209a3.3,3.3,0,0,0-3.17,3.044l-1.025,8.9a1.454,1.454,0,0,0,1.459,1.769h.587l.686,12.345h6.63L9.6,22.632" transform="translate(0.685 13.03)"/><path class="a" d="M0,22.586l.228,3.474h6.63l.785-12.345H8.23c.96,0,1.479-.732,1.359-1.769l-1.023-8.9A3.3,3.3,0,0,0,5.4,0H1.372A2.944,2.944,0,0,0,.309.206" transform="translate(28.12 13.03)"/><path class="a" d="M14.745,20.574,13.372,13.46A1.881,1.881,0,0,0,14.731,11.4L13.6,3.365A3.659,3.659,0,0,0,10.076,0H5.006A3.659,3.659,0,0,0,1.488,3.365L.009,11.4a2.158,2.158,0,0,0,1.7,2.063L.339,20.574H3.971L5.482,28.8H9.6l1.512-8.23Z" transform="translate(11.661 11.659)"/></g></svg>