<svg xmlns="http://www.w3.org/2000/svg" viewBox="0 0 56 56"><defs><style>.a{fill:#8659f2;}.b{fill:#262626;}</style></defs><circle class="a" cx="28" cy="28" r="28"/><path class="b" d="M12.932,19.057h0q-1.138-.054-2.277-.1h-.01c-2.036-.091-4.14-.185-6.208-.314a6.006,6.006,0,0,1-1.969-.486A3.955,3.955,0,0,1,.236,14.521,54.434,54.434,0,0,1,.15,5.359,14.918,14.918,0,0,1,.48,3.133,3.582,3.582,0,0,1,3.761.407C6.353.227,9.369.034,12.356,0c.294,0,.6,0,.908,0,2.174,0,4.385.073,6.523.143q.974.032,1.945.062a15.068,15.068,0,0,1,2.289.253,3.434,3.434,0,0,1,3,3.056,31.008,31.008,0,0,1,.42,6.584c-.062,1.794-.238,3.609-.419,5.3a3.553,3.553,0,0,1-3.336,3.147c-2.37.136-4.782.236-7.115.332h-.021l-1.971.083c-.177.008-.366.011-.592.011-.175,0-.349,0-.524,0s-.35,0-.525,0c0,.029,0,.059,0,.088ZM11.12,5.26v8.43l1.954-1.2,4.9-3.014L13.528,6.739l0,0Z" transform="translate(14.307 17.825)"/></svg>