<svg xmlns="http://www.w3.org/2000/svg" viewBox="0 0 106.88 106.88"><defs><style>.cls-1{fill:#8659f2;}.cls-2{fill:none;stroke:#262626;stroke-linecap:round;stroke-linejoin:round;stroke-width:2px;}</style></defs><title>icon-wantsAsset 1</title><g id="Layer_2" data-name="Layer 2"><g id="Layer_1-2" data-name="Layer 1"><g id="Sell-Stuff"><circle id="Oval-2" class="cls-1" cx="53.44" cy="53.44" r="53.44"/></g><g id="Group-5"><path id="Stroke-1" class="cls-2" d="M32.08,32.67V78.43"/><path id="Stroke-3" class="cls-2" d="M28.92,75.27H74.68"/></g><path id="Stroke-6" class="cls-2" d="M43.12,70.54V69"/><path id="Stroke-7" class="cls-2" d="M55.75,70.54V56.34"/><path id="Stroke-8" class="cls-2" d="M70,70.54V49.24"/><g id="Group-19"><path id="Stroke-9" class="cls-2" d="M46.28,60.28a3.95,3.95,0,1,1-3.94-3.94A3.95,3.95,0,0,1,46.28,60.28Z"/><path id="Stroke-11" class="cls-2" d="M58.9,47.66A3.95,3.95,0,1,1,55,43.72,3.94,3.94,0,0,1,58.9,47.66Z"/><path id="Stroke-13" class="cls-2" d="M73.1,39.77a3.95,3.95,0,1,1-3.94-3.94A3.94,3.94,0,0,1,73.1,39.77Z"/><path id="Stroke-15" class="cls-2" d="M45.49,57.13l6.31-6.31"/><path id="Stroke-17" class="cls-2" d="M58.9,46.08l6.31-3.94"/></g></g></g></svg>