<svg xmlns="http://www.w3.org/2000/svg" viewBox="0 0 36.754 37.995"><defs><style>.a{fill:none;stroke:#f2b903;stroke-linecap:round;stroke-linejoin:round;stroke-miterlimit:10;stroke-width:2px;}</style></defs><g transform="translate(0.379 0.379)"><path class="a" d="M3.1,0A3.1,3.1,0,0,0,0,3.1V25.445a3.1,3.1,0,0,0,3.1,3.1H31.651a3.1,3.1,0,0,0,3.1-3.1V3.1a3.1,3.1,0,0,0-3.1-3.1Z" transform="translate(0.621 0.621)"/><path class="a" d="M21.1,3.724H0V3.1A3.1,3.1,0,0,1,3.1,0H18a3.1,3.1,0,0,1,3.1,3.1Z" transform="translate(6.827 32.893)"/><path class="a" d="M0,0H34.134" transform="translate(0.621 24.204)"/></g></svg>