<svg xmlns="http://www.w3.org/2000/svg" viewBox="0 0 106.88 106.88"><defs><style>.cls-1{fill:#8659f2;}.cls-2{fill:none;stroke:#262626;stroke-linecap:round;stroke-linejoin:round;stroke-width:2px;}</style></defs><title>icon-dropAsset 2</title><g id="Layer_2" data-name="Layer 2"><g id="Layer_1-2" data-name="Layer 1"><g id="Sell-Stuff"><circle id="Oval-2" class="cls-1" cx="53.44" cy="53.44" r="53.44"/></g><g id="Page-1"><g id="Group-5"><polyline id="Stroke-1" class="cls-2" points="53.37 74.15 33.85 68.88 33.85 38.98 53.37 33.7 72.9 38.98 72.9 68.88 53.37 74.15"/><path id="Stroke-3" class="cls-2" d="M53.37,74.15V33.71"/></g><path id="Stroke-6" class="cls-2" d="M46.4,67.18V61.6"/><polyline id="Stroke-7" class="cls-2" points="43.61 64.39 46.4 61.6 49.19 64.39"/><path id="Stroke-8" class="cls-2" d="M57.56,67.18l4.88-1.4"/><polyline id="Stroke-9" class="cls-2" points="60.35 35.8 60.35 53.23 61.74 54.63 63.84 53.23 65.93 54.63 67.32 53.23 67.32 37.89"/><polyline id="Stroke-10" class="cls-2" points="46.4 35.8 46.4 53.23 45.01 54.63 42.91 53.23 40.82 54.63 39.43 53.23 39.43 37.89"/></g></g></g></svg>