<svg xmlns="http://www.w3.org/2000/svg" viewBox="0 0 173.02 173.02"><defs><style>.cls-1,.cls-3,.cls-4{fill:none;}.cls-1{stroke:#3535eb;stroke-width:10px;}.cls-2{fill:#5d5d5d;}.cls-3,.cls-4{stroke:#424242;stroke-linecap:round;}.cls-3{stroke-width:3px;}.cls-4{stroke-width:2px;}</style></defs><title>icon-flipAsset 1</title><g id="Layer_2" data-name="Layer 2"><g id="Layer_1-2" data-name="Layer 1"><g id="Page-1"><path id="Stroke-1" class="cls-1" d="M168,86.51A81.51,81.51,0,1,1,86.51,5,81.51,81.51,0,0,1,168,86.51Z"/><path id="Fill-3" class="cls-2" d="M101.4,127.42a3.35,3.35,0,1,1-3.34-3.35,3.35,3.35,0,0,1,3.34,3.35"/><path id="Fill-5" class="cls-2" d="M76.23,127.42a3.35,3.35,0,1,1-3.34-3.35,3.35,3.35,0,0,1,3.34,3.35"/><path id="Fill-7" class="cls-2" d="M88.82,127.42a3.35,3.35,0,1,1-3.35-3.35,3.35,3.35,0,0,1,3.35,3.35"/><path id="Fill-9" class="cls-2" d="M63.65,127.42a3.35,3.35,0,1,1-3.35-3.35,3.35,3.35,0,0,1,3.35,3.35"/><path id="Fill-11" class="cls-2" d="M114,127.42a3.34,3.34,0,1,1-3.34-3.35,3.34,3.34,0,0,1,3.34,3.35"/><path id="Stroke-17" class="cls-3" d="M145.9,72.62a60.84,60.84,0,0,0-118.73,0"/><path id="Stroke-19" class="cls-4" d="M86.5,24.66l.07,5"/><path id="Stroke-21" class="cls-4" d="M86.5,24.66l.07,5"/><path id="Stroke-23" class="cls-4" d="M79,25.14l.7,4.91"/><path id="Stroke-25" class="cls-4" d="M79,25.14l.7,4.91"/><path id="Stroke-27" class="cls-4" d="M71.69,26.54,73,31.33"/><path id="Stroke-29" class="cls-4" d="M71.69,26.54,73,31.33"/><path id="Stroke-31" class="cls-4" d="M64.57,28.86l1.9,4.59"/><path id="Stroke-33" class="cls-4" d="M64.57,28.86l1.9,4.59"/><path id="Stroke-35" class="cls-4" d="M57.81,32.05l2.45,4.31"/><path id="Stroke-37" class="cls-4" d="M57.81,32.05l2.45,4.31"/><path id="Stroke-39" class="cls-4" d="M51.49,36.06l3,4"/><path id="Stroke-41" class="cls-4" d="M51.49,36.06l3,4"/><path id="Stroke-43" class="cls-4" d="M45.73,40.83l3.46,3.57"/><path id="Stroke-45" class="cls-4" d="M45.73,40.83l3.46,3.57"/><path id="Stroke-47" class="cls-4" d="M40.62,46.29l3.87,3.1"/><path id="Stroke-49" class="cls-4" d="M40.62,46.29l3.87,3.1"/><path id="Stroke-51" class="cls-4" d="M36.22,52.34l4.23,2.6"/><path id="Stroke-53" class="cls-4" d="M36.22,52.34l4.23,2.6"/><path id="Stroke-55" class="cls-4" d="M32.62,58.9l4.53,2"/><path id="Stroke-57" class="cls-4" d="M32.62,58.9l4.53,2"/><path id="Stroke-59" class="cls-4" d="M29.87,65.85l4.75,1.47"/><path id="Stroke-61" class="cls-4" d="M29.87,65.85l4.75,1.47"/><path id="Stroke-63" class="cls-4" d="M143.17,65.78l-4.7,1.61"/><path id="Stroke-65" class="cls-4" d="M143.17,65.78l-4.7,1.61"/><path id="Stroke-67" class="cls-4" d="M140.41,58.83,136,61"/><path id="Stroke-69" class="cls-4" d="M140.41,58.83,136,61"/><path id="Stroke-71" class="cls-4" d="M136.81,52.28,132.66,55"/><path id="Stroke-73" class="cls-4" d="M136.81,52.28,132.66,55"/><path id="Stroke-75" class="cls-4" d="M132.41,46.23l-3.78,3.22"/><path id="Stroke-77" class="cls-4" d="M132.41,46.23l-3.78,3.22"/><path id="Stroke-79" class="cls-4" d="M127.28,40.78l-3.34,3.67"/><path id="Stroke-81" class="cls-4" d="M127.28,40.78l-3.34,3.67"/><path id="Stroke-83" class="cls-4" d="M121.52,36l-2.86,4"/><path id="Stroke-85" class="cls-4" d="M121.52,36l-2.86,4"/><path id="Stroke-87" class="cls-4" d="M115.2,32l-2.33,4.39"/><path id="Stroke-89" class="cls-4" d="M115.2,32l-2.33,4.39"/><path id="Stroke-91" class="cls-4" d="M108.43,28.83l-1.76,4.64"/><path id="Stroke-93" class="cls-4" d="M108.43,28.83l-1.76,4.64"/><path id="Stroke-95" class="cls-4" d="M101.31,26.52l-1.16,4.83"/><path id="Stroke-97" class="cls-4" d="M101.31,26.52l-1.16,4.83"/><path id="Stroke-99" class="cls-4" d="M94,25.13l-.55,4.93"/></g></g></g></svg>