<svg xmlns="http://www.w3.org/2000/svg" viewBox="0 0 120 31"><defs><style>.a{fill:#fff;}</style></defs><g transform="translate(0)"><path class="a" d="M56.708,31a9.491,9.491,0,0,1-5.343-1.446,2.257,2.257,0,0,1-1.229-1.73,1.874,1.874,0,0,1,.18-.8,9.1,9.1,0,0,1,1.148-1.714c.077-.1.655-.722,1.671-1.8a5.1,5.1,0,0,1-1.2-.922,1.364,1.364,0,0,1-.353-.922,2.82,2.82,0,0,1,.467-1.364A10.848,10.848,0,0,1,54.2,18.094a5.016,5.016,0,0,1-2.114-1.9,5.183,5.183,0,0,1-.737-2.7A5.259,5.259,0,0,1,53.027,9.6a5.951,5.951,0,0,1,4.3-1.63A6.508,6.508,0,0,1,61.05,9.031h3.18a4.093,4.093,0,0,1,.82.041.278.278,0,0,1,.163.141,1.012,1.012,0,0,1,.1.532,1.56,1.56,0,0,1-.082.6.337.337,0,0,1-.172.133,3.566,3.566,0,0,1-.828.049h-1.95a4.908,4.908,0,0,1,.918,3.06,4.851,4.851,0,0,1-1.607,3.642,6.057,6.057,0,0,1-4.31,1.513A8.214,8.214,0,0,1,55,18.41a4.464,4.464,0,0,0-.976,1.106,1.8,1.8,0,0,0-.254.807.778.778,0,0,0,.27.548,1.981,1.981,0,0,0,1.058.383c.29.043,1.062.082,2.3.116,2.268.057,3.7.133,4.376.233a4.1,4.1,0,0,1,2.435,1.147,3.175,3.175,0,0,1,.909,2.3,4.856,4.856,0,0,1-1.737,3.525A9.328,9.328,0,0,1,56.708,31Zm-2.674-7.351a8.192,8.192,0,0,0-1.163,1.58,2.891,2.891,0,0,0-.393,1.347,1.694,1.694,0,0,0,.951,1.4A9.009,9.009,0,0,0,58.165,29a7.284,7.284,0,0,0,4.351-1.056,2.922,2.922,0,0,0,1.4-2.254,1.264,1.264,0,0,0-.836-1.23,10.834,10.834,0,0,0-3.376-.432A53.354,53.354,0,0,1,54.034,23.648ZM57.051,8.765a2.56,2.56,0,0,0-2.033.981,4.654,4.654,0,0,0-.819,3.011,6.6,6.6,0,0,0,1.114,4.074,2.643,2.643,0,0,0,2.164,1.1,2.574,2.574,0,0,0,2.048-.949,4.543,4.543,0,0,0,.8-2.975A6.762,6.762,0,0,0,59.2,9.863,2.593,2.593,0,0,0,57.051,8.765ZM6.359,24.115A5.782,5.782,0,0,1,1.9,21.936,8.683,8.683,0,0,1,0,16.048a8.22,8.22,0,0,1,2.106-5.837A6.716,6.716,0,0,1,7.162,7.967,5.475,5.475,0,0,1,10.8,9.156a3.315,3.315,0,0,1,1.426,2.47,1.365,1.365,0,0,1-.4,1.022,1.55,1.55,0,0,1-1.123.391,1.74,1.74,0,0,1-1.458-.632,2.68,2.68,0,0,1-.369-1.33,2.2,2.2,0,0,0-.664-1.5,2.352,2.352,0,0,0-1.589-.5,3.247,3.247,0,0,0-2.639,1.231,6.636,6.636,0,0,0-1.327,4.307,8.858,8.858,0,0,0,1.318,4.814A4.057,4.057,0,0,0,7.538,21.52a4.33,4.33,0,0,0,2.884-1.114,7.565,7.565,0,0,0,1.754-2.777l.476.232a8.33,8.33,0,0,1-2.377,4.631A5.7,5.7,0,0,1,6.359,24.115Zm98.089,0a11.828,11.828,0,0,1-3.147-.5,3.2,3.2,0,0,0-.885-.166.655.655,0,0,0-.59.432h-.54V18.443h.54a6.251,6.251,0,0,0,1.754,3.509,4.223,4.223,0,0,0,2.9,1.18,2.587,2.587,0,0,0,1.844-.673,2.167,2.167,0,0,0,.713-1.622,2.615,2.615,0,0,0-.795-1.929,13.878,13.878,0,0,0-3.172-1.979,9.428,9.428,0,0,1-3.114-2.162,3.8,3.8,0,0,1-.737-2.395,4.27,4.27,0,0,1,1.27-3.143,4.473,4.473,0,0,1,3.286-1.264,7.664,7.664,0,0,1,2.147.382,4.994,4.994,0,0,0,1.115.249.645.645,0,0,0,.41-.116,1.576,1.576,0,0,0,.345-.516h.54v5.189h-.54a6.8,6.8,0,0,0-1.6-3.326,3.576,3.576,0,0,0-2.482-.882,2.723,2.723,0,0,0-1.852.616,1.8,1.8,0,0,0-.7,1.364,2.515,2.515,0,0,0,.525,1.6,5.852,5.852,0,0,0,2.066,1.446l2.392,1.181c2.208,1.093,3.327,2.553,3.327,4.341a4.139,4.139,0,0,1-1.55,3.351A5.343,5.343,0,0,1,104.448,24.114Zm-31.664,0a11.861,11.861,0,0,1-3.147-.5,3.2,3.2,0,0,0-.885-.166.655.655,0,0,0-.59.432h-.54V18.443h.54a6.253,6.253,0,0,0,1.754,3.509,4.22,4.22,0,0,0,2.9,1.18,2.583,2.583,0,0,0,1.843-.673,2.158,2.158,0,0,0,.714-1.622,2.612,2.612,0,0,0-.795-1.929,13.838,13.838,0,0,0-3.172-1.979,9.413,9.413,0,0,1-3.114-2.162,3.815,3.815,0,0,1-.737-2.395,4.27,4.27,0,0,1,1.27-3.143,4.476,4.476,0,0,1,3.286-1.264,7.676,7.676,0,0,1,2.147.382,4.915,4.915,0,0,0,1.114.249.64.64,0,0,0,.41-.116,1.548,1.548,0,0,0,.344-.516h.541v5.189h-.541a6.8,6.8,0,0,0-1.6-3.326,3.577,3.577,0,0,0-2.483-.882,2.73,2.73,0,0,0-1.852.616,1.8,1.8,0,0,0-.7,1.364,2.508,2.508,0,0,0,.525,1.6,5.858,5.858,0,0,0,2.066,1.446l2.392,1.181C76.68,16.243,77.8,17.7,77.8,19.49a4.139,4.139,0,0,1-1.549,3.351A5.343,5.343,0,0,1,72.784,24.114Zm-43.07-.149a3.367,3.367,0,0,1-2.565-1.081,4.02,4.02,0,0,1-1.009-2.844,3.671,3.671,0,0,1,.492-1.929,6.588,6.588,0,0,1,2.335-2.129A36.683,36.683,0,0,1,34.5,13.554v-.6a5.051,5.051,0,0,0-.712-3.127,2.567,2.567,0,0,0-2.074-.849,2.317,2.317,0,0,0-1.639.565,1.719,1.719,0,0,0-.623,1.3l.033.965a1.684,1.684,0,0,1-.385,1.182,1.312,1.312,0,0,1-1.008.416,1.272,1.272,0,0,1-.991-.433,1.717,1.717,0,0,1-.385-1.181,3.432,3.432,0,0,1,1.442-2.628,6.19,6.19,0,0,1,4.048-1.2,6.972,6.972,0,0,1,3.278.682,3.136,3.136,0,0,1,1.426,1.614,9.172,9.172,0,0,1,.3,2.927v5.171a24.024,24.024,0,0,0,.082,2.669,1.132,1.132,0,0,0,.271.656.641.641,0,0,0,.434.167.841.841,0,0,0,.46-.116,10.409,10.409,0,0,0,1.328-1.215v.931c-1.219,1.656-2.4,2.5-3.507,2.5a1.589,1.589,0,0,1-1.278-.566,3.088,3.088,0,0,1-.494-1.928,24.473,24.473,0,0,1-2.9,2.1A4.331,4.331,0,0,1,29.714,23.964Zm4.784-9.4a32.564,32.564,0,0,0-3.2,1.413,5.566,5.566,0,0,0-1.852,1.531,2.961,2.961,0,0,0-.556,1.746,2.89,2.89,0,0,0,.7,1.987,2.135,2.135,0,0,0,1.623.79A5.939,5.939,0,0,0,34.5,20.372Zm81.715,9.33a2.884,2.884,0,0,1-1.474-.424,2.561,2.561,0,0,1-1.067-1.214,6.506,6.506,0,0,1-.344-2.436V9.58h-2.376V9.031A6.263,6.263,0,0,0,112.8,7.792a9.939,9.939,0,0,0,1.679-2.07,18.972,18.972,0,0,0,1.049-2.312h.508V8.416h3.507V9.58h-3.507v9.878a3.372,3.372,0,0,0,.418,2,1.327,1.327,0,0,0,1.074.516,1.862,1.862,0,0,0,1.049-.341,2.206,2.206,0,0,0,.787-1.005H120a5.249,5.249,0,0,1-1.623,2.452A3.481,3.481,0,0,1,116.214,23.9Zm-19.436-.25H89.485v-.6H89.5a3.307,3.307,0,0,0,1.458-.215,1.488,1.488,0,0,0,.6-.716,5.475,5.475,0,0,0,.221-1.912V14.336a21.124,21.124,0,0,0-.149-3.21,1.308,1.308,0,0,0-.36-.74,1.012,1.012,0,0,0-.671-.208,3.233,3.233,0,0,0-1.114.249l-.229-.6,4.523-1.863h.72V20.207a5.711,5.711,0,0,0,.205,1.9,1.455,1.455,0,0,0,.606.706,3.218,3.218,0,0,0,1.468.233v.6Zm-9.178,0H80.24v-.6h.015a3.09,3.09,0,0,0,1.394-.215,1.442,1.442,0,0,0,.59-.716,5.684,5.684,0,0,0,.213-1.912V6.37A24.6,24.6,0,0,0,82.339,3.2a1.4,1.4,0,0,0-.369-.807.968.968,0,0,0-.647-.216,3.085,3.085,0,0,0-1.082.266l-.278-.582L84.437,0h.736V20.207a5.6,5.6,0,0,0,.206,1.894,1.464,1.464,0,0,0,.63.707,3.6,3.6,0,0,0,1.59.241v.6Zm-39.268,0H41.039v-.6h.016a3.272,3.272,0,0,0,1.459-.215,1.486,1.486,0,0,0,.6-.716,5.51,5.51,0,0,0,.221-1.912V14.336a21.419,21.419,0,0,0-.147-3.21,1.332,1.332,0,0,0-.361-.74,1.012,1.012,0,0,0-.671-.208,3.184,3.184,0,0,0-1.115.249l-.229-.6,4.523-1.863h.721V20.207a5.664,5.664,0,0,0,.2,1.9,1.455,1.455,0,0,0,.607.706,3.216,3.216,0,0,0,1.467.233v.6Zm-26.535,0H14.111v-.6h.01a3.139,3.139,0,0,0,1.694-.365,1.429,1.429,0,0,0,.573-.848,8.668,8.668,0,0,0,.083-1.614v-5.9a25.5,25.5,0,0,0-.106-3.168,1.256,1.256,0,0,0-.393-.74,1.1,1.1,0,0,0-.714-.233,3.171,3.171,0,0,0-1.147.249l-.164-.6,4.54-1.863h.689v3.426c1.25-2.273,2.551-3.425,3.866-3.425a2.1,2.1,0,0,1,1.492.557,1.732,1.732,0,0,1,.59,1.289,1.538,1.538,0,0,1-.426,1.1,1.359,1.359,0,0,1-1.016.449,2.15,2.15,0,0,1-1.286-.573,2.122,2.122,0,0,0-1.057-.574.959.959,0,0,0-.639.333,8.051,8.051,0,0,0-1.525,2.245v7.3A4.616,4.616,0,0,0,19.486,22a1.727,1.727,0,0,0,.755.749,3.353,3.353,0,0,0,1.556.3v.6ZM93.139,3.377a1.606,1.606,0,0,1-1.181-.5,1.652,1.652,0,0,1-.491-1.2A1.635,1.635,0,0,1,91.95.491,1.612,1.612,0,0,1,93.139,0a1.588,1.588,0,0,1,1.171.49,1.635,1.635,0,0,1,.484,1.189,1.666,1.666,0,0,1-.484,1.2A1.572,1.572,0,0,1,93.139,3.377Zm-48.445,0a1.606,1.606,0,0,1-1.181-.5,1.655,1.655,0,0,1-.491-1.2A1.64,1.64,0,0,1,43.5.491,1.616,1.616,0,0,1,44.694,0a1.6,1.6,0,0,1,1.172.49,1.638,1.638,0,0,1,.483,1.189,1.669,1.669,0,0,1-.483,1.2A1.579,1.579,0,0,1,44.694,3.377Z"/></g></svg>