<svg xmlns="http://www.w3.org/2000/svg" viewBox="0 0 76 36"><defs><style>.a{fill:#fff;}</style></defs><path class="a" d="M56.867,36A6.8,6.8,0,0,1,53.1,34.909c.35-1.334.617-2.9.875-4.411l0-.01c.047-.273.093-.543.139-.809L55.7,29.6l.565,2.935a1.469,1.469,0,0,0,1.658,1.166c2.487,0,4.514-1.67,6.2-5.106l-.6-1.548c-1.678-4.319-3.127-8.048-5.859-14.3-.574-1.336-.8-1.582-1.733-1.881l-.679-.225V9.329l4.1.188,5.161-.188v1.317l-1.243.263c-.85.176-1.319.63-1.319,1.278a1.859,1.859,0,0,0,.113.6c.361,1.117,2.58,7.143,4.2,11.221,1.353-2.991,3.958-9.324,4.425-10.507a3.7,3.7,0,0,0,.3-1.2c0-.649-.415-1.041-1.432-1.354l-.979-.3V9.329l3.842.187L76,9.329v1.317l-.791.3c-1.418.56-1.618.676-2.109,1.844L67.036,27.085c-1.6,3.8-3.392,6.315-5.465,7.674A7.931,7.931,0,0,1,56.867,36ZM33.28,28.114a5.274,5.274,0,0,1-3.585-1.2,4.692,4.692,0,0,1-1.434-3.628V11.72H24.9V10.288A6.5,6.5,0,0,0,27.62,9.233c1.846-1.2,2.369-2.978,2.905-5.351l1.624.037V9.648l5.886-.227-.3,2.563-5.585-.415V21.783c0,2.725.815,3.994,2.566,3.994a3.832,3.832,0,0,0,3.093-1.582l.793,1.017C37.734,27.354,35.193,28.114,33.28,28.114Zm13.508-.068a19.26,19.26,0,0,1-5.773-1.055,18.247,18.247,0,0,0,.113-2.412c0-1.019-.041-2.063-.113-2.864l1.434-.038,1.058,2.713a3.506,3.506,0,0,0,3.584,2.186c2.141,0,3.32-1,3.32-2.826,0-2.141-2-3.027-4.11-3.966A13.778,13.778,0,0,1,42.783,17.8a4.654,4.654,0,0,1-1.654-3.7,4.6,4.6,0,0,1,1.953-3.976,8.146,8.146,0,0,1,4.726-1.263,16.758,16.758,0,0,1,5.32.83c-.174,1.066-.257,2.323-.338,3.539l-.019.273c-.019.285-.038.554-.058.823l-1.4.075-.943-2.826c-.225-.711-1.342-1.207-2.717-1.207-2.079,0-3.32.916-3.32,2.45,0,1.919,1.968,2.8,4.052,3.731,2.558,1.143,5.457,2.438,5.457,5.917a4.967,4.967,0,0,1-2.056,4.174A8.4,8.4,0,0,1,46.788,28.046Zm-23.583-.308h0l-.086,0-.074,0c-3.4-.117-5.969-.182-7.234-.182H5.925L0,27.737V26.156l2-.377c1.417-.268,1.849-.691,1.849-1.81v-.014c.012-.406.113-4.13.113-9.936s-.1-9.565-.113-9.973V4.033C3.737,2.766,3.426,2.455,2,2.185L0,1.809V.226L5.925.414H16.979C19.132.414,22.834,0,22.865,0V.008c-.04.441-.25,2.889-.489,7.831H20.9l-.49-1.922c-.648-2.589-1.528-3.694-2.944-3.694H8.83c-.647,0-.679.229-.679.6V12.964h.063c.124,0,.4,0,.752,0,1.276,0,3.593-.02,4.768-.154,1.509-.154,1.705-.442,2.038-1.846L16.3,8.781h1.623L17.7,13.756l.113,4.937H16.187l-.454-1.959c-.336-1.455-.975-1.771-2.038-1.847-1.407-.112-5.5-.113-5.546-.113v8.592c0,1.62.887,2.374,2.792,2.374h5.622c1.916,0,3.6-.213,4.755-2.826l1.472-3.354h1.4c-.111.669-.867,6.822-.981,8.177Z"/></svg>