<svg xmlns="http://www.w3.org/2000/svg" xmlns:xlink="http://www.w3.org/1999/xlink" viewBox="0 0 72.304 43.349"><defs><style>.a{fill:none;}.b{clip-path:url(#a);}.c{fill:#fff;}</style><clipPath id="a"><path class="a" d="M0,0H72.3V43.349H0Z" transform="translate(0 0)"/></clipPath></defs><g transform="translate(0 0)"><path class="a" d="M0,0H72.3V43.349H0Z" transform="translate(0 0)"/><g class="b"><path class="c" d="M41.669,43.349a4.03,4.03,0,0,1-4.105-3.811,7.7,7.7,0,0,1,1.989-6.115,16.18,16.18,0,0,1,6.359-4.664c1.738-.7,2.033-1.981,2.219-3.462-1.682,2.1-3.411,3.205-5,3.206-1.651,0-3.071-1.224-3.9-3.36-.278.2-.553.42-.819.632a9.724,9.724,0,0,1-1.9,1.285,14.364,14.364,0,0,1-4.181,1.354,5.03,5.03,0,0,1-.579.035,2.649,2.649,0,0,1-2.089-.832,3.859,3.859,0,0,1-.809-2.362c-.01-.165-.018-.33-.027-.539-.006-.13-.013-.276-.021-.45-.138.106-.261.2-.373.283-.222.167-.4.3-.567.444a13.636,13.636,0,0,1-7.2,3.393,11.146,11.146,0,0,1-1.432.1,6.251,6.251,0,0,1-5.937-3.478c-.382.2-.759.41-1.123.611-.834.46-1.619.894-2.452,1.253a22.756,22.756,0,0,1-4.185,1.48,6.374,6.374,0,0,1-1.315.144A4.186,4.186,0,0,1,1.052,27.2a4.564,4.564,0,0,1-1.02-3.621A74.485,74.485,0,0,1,3.322,6.836,22.028,22.028,0,0,1,4.338,4.392C5.514,1.961,6.906.606,8.852,0h1.689C12.6,1.125,13,1.925,12.686,4.281a14.879,14.879,0,0,1-.653,2.686A62.124,62.124,0,0,1,5.868,19.338a7.457,7.457,0,0,0-.9,3.035,2.214,2.214,0,0,0,.455,1.745,1.867,1.867,0,0,0,1.431.557,3.313,3.313,0,0,0,.456-.033,18.99,18.99,0,0,0,2.805-.69c.487-.146.99-.3,1.489-.424.841-.214,1.132-.639,1.113-1.625A15.441,15.441,0,0,1,17.036,10.5a7.355,7.355,0,0,1,5.481-2.358,9.3,9.3,0,0,1,1.1.067,3.811,3.811,0,0,1,2.462,1.143,3.784,3.784,0,0,1,.888,2.549,6.373,6.373,0,0,1-2.209,5.154,66.006,66.006,0,0,1-5.794,4.288c-.781.53-1.161,1.033-1.163,1.539s.353.972,1.082,1.473A4.268,4.268,0,0,0,21,25.063c.106,0,.214.007.319.007,2.267,0,4.176-.973,6.345-2.434,1.652-1.112,2.079-2.777,2.374-4.387.319-1.746.7-3.521,1.066-5.237.154-.722.314-1.468.469-2.211l-.658-.066-1.254-.128a2.123,2.123,0,0,1,.343-1.646,1.163,1.163,0,0,1,.9-.388c1.239-.026,1.356-.734,1.491-1.555.077-.467.19-.936.3-1.39l0-.018.057-.24a3.178,3.178,0,0,1,3.207-2.624,4.4,4.4,0,0,1,.9.1,1.175,1.175,0,0,1,.819.436,1.142,1.142,0,0,1,.039.895c-.239.963-.436,1.932-.644,2.957-.089.438-.181.891-.279,1.354H39.58a2.175,2.175,0,0,1-.306,1.69,2.188,2.188,0,0,1-1.639.535h-.07c-.1,0-.2-.007-.3-.014s-.2-.013-.295-.013c-.367,0-.725.089-.854.738-.287,1.436-.593,2.893-.888,4.3-.451,2.149-.916,4.367-1.325,6.558a2.546,2.546,0,0,0,.239,2.077,1.321,1.321,0,0,0,1.073.426,4.3,4.3,0,0,0,1.338-.262,7.171,7.171,0,0,0,.709-.3l.177-.082a2.329,2.329,0,0,0,1.578-2.469,16.107,16.107,0,0,1,3.715-10.945A5.81,5.81,0,0,1,50.8,9.061c.41-.093.783-.189,1.143-.283a11.723,11.723,0,0,1,2.1-.416c.044,0,.088,0,.13,0a.874.874,0,0,1,.721.281,1.22,1.22,0,0,1,.115,1.041c-.41,1.846-.748,3.739-1.075,5.571-.124.7-.252,1.413-.383,2.123-.347,1.879-.692,3.759-1.056,5.742l-.02.108L51.95,26.1c.4-.258.778-.5,1.14-.735.8-.519,1.494-.967,2.21-1.4a1.714,1.714,0,0,0,.881-1.776,15.561,15.561,0,0,1,3.532-10.623,8.92,8.92,0,0,1,4.7-3.206,7.551,7.551,0,0,1,1.943-.266,5.717,5.717,0,0,1,5.706,5,2.343,2.343,0,0,0,.156.45c.029.069.059.139.085.209v2.9c-.076.3-.148.6-.219.9v.005c-.157.655-.319,1.333-.519,1.988a14.359,14.359,0,0,1-3.937,6.526,8.273,8.273,0,0,1-5.264,2.4c-.166.01-.331.015-.49.015a5.445,5.445,0,0,1-3.106-.87A5.991,5.991,0,0,1,56.7,24.971q-.636.408-1.266.808L55.4,25.8c-1.261.8-2.453,1.56-3.642,2.376a1.711,1.711,0,0,0-.438.979l-.019.079a35.871,35.871,0,0,1-3.3,9.649c-1.012,1.78-2.543,3.887-5.42,4.386A5.315,5.315,0,0,1,41.669,43.349Zm5.183-12.74h0c-3.028,1.548-5.175,3-6.522,5.468-.814,1.489-.694,3,.284,3.6a1.553,1.553,0,0,0,.82.224,3.294,3.294,0,0,0,2.5-1.66,23.631,23.631,0,0,0,2.7-6.845l.051-.184.073-.257.1-.343ZM66.911,11.047a4.724,4.724,0,0,0-3.38,2.012,11.863,11.863,0,0,0-2.407,7.165c.006.145.011.287.015.459v.025c.008.268.015.5.043.729l.017.139c.181,1.439.368,2.927,1.967,3.4a2.7,2.7,0,0,0,.76.116c1.3,0,2.171-1.078,2.886-2.089a14.356,14.356,0,0,0,2.543-7.786c.063-1.395.141-3.131-1.585-3.982A1.923,1.923,0,0,0,66.911,11.047Zm-18.234.005a3.507,3.507,0,0,0-2.821,1.433c-2.164,2.758-2.974,6.182-2.477,10.468a1.588,1.588,0,0,0,1.7,1.489,2.484,2.484,0,0,0,.3-.017,4.6,4.6,0,0,0,3.289-2.865c.462-2.4.922-4.94,1.291-6.979l.053-.292.068-.38,0-.01c.145-.8.293-1.621.442-2.433A4.611,4.611,0,0,0,48.677,11.052Zm-25.964.1a2.047,2.047,0,0,0-.784.175A5.485,5.485,0,0,0,19.7,13.037c-1.489,2.047-1.965,4.47-2.22,7.478,2.39-1.588,4.475-3.092,5.781-5.432a5.88,5.88,0,0,0,.671-2.161,1.776,1.776,0,0,0-.339-1.4A1.138,1.138,0,0,0,22.713,11.154ZM9.9,2.734c-.856,0-1.094.879-1.286,1.586l0,.006-.032.119C7.823,7.192,7.1,10,6.4,12.719l-.055.215-.005.023-.014.055-.038.147L6.2,13.5l-.048.186L6,14.3c-.156.608-.317,1.237-.476,1.852l.117.026.117.027.022,0,.175.04.04.009.049.011A47.163,47.163,0,0,0,10.368,5a4.752,4.752,0,0,0-.122-2.191.1.1,0,0,0-.059-.049A1.439,1.439,0,0,0,9.9,2.734Z" transform="translate(0 0)"/></g></g></svg>