<svg xmlns="http://www.w3.org/2000/svg" viewBox="0 0 126.448 25.268"><defs><style>.a{fill:#fff;}</style></defs><g transform="translate(-0.462 -0.489)"><path class="a" d="M124.893,25.268a1.6,1.6,0,0,1,0-3.2h.006a1.6,1.6,0,0,1-.006,3.2Zm0-2.95a1.354,1.354,0,0,0,.006,2.7h.013a1.2,1.2,0,0,0,.886-.393,1.4,1.4,0,0,0,.364-.953,1.313,1.313,0,0,0-1.262-1.355Zm-76.01,2.935c-5.026,0-7.683-2.467-7.683-7.134V14.666a6.815,6.815,0,0,1,1.515-4.739c1.193-1.308,3.125-1.972,5.74-1.972s4.55.659,5.739,1.958a6.737,6.737,0,0,1,1.514,4.752v3.453H46.318v.347c0,1.925.67,2.481,2.989,2.481a29.874,29.874,0,0,0,5.972-.564v4.2A26.665,26.665,0,0,1,48.883,25.253Zm-.428-13.415c-1.893,0-2.136,1.153-2.136,2.157v.671h4.268v-.671C50.588,12.991,50.346,11.838,48.455,11.838ZM34.564,25.253c-5.025,0-7.682-2.467-7.682-7.134V15.1c0-4.673,2.656-7.143,7.682-7.143a22.774,22.774,0,0,1,5.122.668v4.2a24.012,24.012,0,0,0-4.7-.561,3.77,3.77,0,0,0-2.355.5A2.349,2.349,0,0,0,32,14.744v3.722c0,1.925.67,2.481,2.989,2.481a24.475,24.475,0,0,0,4.7-.564v4.2A23.022,23.022,0,0,1,34.564,25.253Zm29.645-.008a37.829,37.829,0,0,1-6.749-.65l-.016,0h-.006l-.013,0,0-23.295L62.537.433V8.582a11.372,11.372,0,0,1,3.841-.626c2.442,0,4,.516,4.9,1.624.939,1.151,1.066,2.878,1.066,4.416v4.2c0,2.446-.432,3.957-1.449,5.052C69.654,24.592,67.465,25.245,64.209,25.245ZM65.1,12.272a5.672,5.672,0,0,0-2.56.7v7.969a16.518,16.518,0,0,0,1.844.07c2.383,0,2.849-1.018,2.849-2.776V14.427C67.232,13.424,66.989,12.272,65.1,12.272ZM15.89,25.231c-2.958,0-4.8-1.927-4.8-5.03,0-3.232,1.672-4.673,5.421-4.673h3.54v-.744c0-1.69-.139-2.274-2.877-2.274H12.8L13.227,8.2h4.785c2.948,0,4.732.472,5.784,1.53.966.971,1.379,2.493,1.379,5.09V25.054H20.908l-.184-1.09A9.657,9.657,0,0,1,15.89,25.231Zm1.88-6.251c-1.032,0-1.556.178-1.556,1.153a1.252,1.252,0,0,0,1.415,1.435,4.58,4.58,0,0,0,2.206-.593l.008,0,.212-.1V18.979ZM97.7,25.212c-4.964,0-7.481-2.33-7.481-6.925V14.892c0-4.6,2.517-6.926,7.481-6.926,2.744,0,4.756.722,5.98,2.145a7.135,7.135,0,0,1,1.472,4.782v3.395a7.134,7.134,0,0,1-1.472,4.781C102.455,24.49,100.443,25.212,97.7,25.212Zm-.017-12.939c-1.936,0-2.343,1.172-2.343,2.155v4.361c0,.985.406,2.16,2.343,2.16s2.351-1.175,2.351-2.16V14.427C100.033,13.444,99.625,12.272,97.682,12.272ZM81.305,25.212c-4.964,0-7.481-2.33-7.481-6.925V14.892c0-4.6,2.517-6.926,7.481-6.926,2.745,0,4.757.722,5.981,2.145a7.139,7.139,0,0,1,1.471,4.782v3.395a7.138,7.138,0,0,1-1.471,4.781C86.063,24.49,84.051,25.212,81.305,25.212Zm-.017-12.939c-1.938,0-2.345,1.172-2.345,2.155v4.361c0,.985.407,2.16,2.345,2.16s2.345-1.175,2.345-2.16V14.427C83.632,13.444,83.225,12.272,81.288,12.272Zm30.45,12.75h-5.12V1.3l5.12-.862V15.707L116.429,8.2h5.548l-5.122,8.194,5.121,8.627-5.547,0-4.692-7.908v7.908Zm-104.06,0H2.558V12.509H0V8.2H2.559V5.609A5.913,5.913,0,0,1,3.794,1.486,5.516,5.516,0,0,1,8.106,0h3.416V4.313H9.388c-1.625,0-1.7.624-1.7,1.727L7.678,8.2h3.868l-.452,4.311H7.678V25.021ZM124.6,24.6h-.282V22.814l.014,0a3.065,3.065,0,0,1,.484-.04.952.952,0,0,1,.548.134.431.431,0,0,1,.159.368.438.438,0,0,1-.342.434v.014c.158.031.26.18.294.432a1.5,1.5,0,0,0,.11.439l-.293,0a1.367,1.367,0,0,1-.119-.455.331.331,0,0,0-.38-.311H124.6V24.6Zm.2-1.6a1.479,1.479,0,0,0-.2.013v.6h.2c.271,0,.427-.112.427-.306C125.229,23.231,125.2,22.992,124.8,22.992Z" transform="translate(0.462 0.489)"/></g></svg>