<svg xmlns="http://www.w3.org/2000/svg" viewBox="0 0 46 52.014"><defs><style>.a{fill:#fb4467;}.b{fill:#fff;}</style></defs><path class="a" d="M16.917,45.917H0V0H46V45.917H29.111l-6.1,6.1Z"/><g transform="translate(8 12)"><path class="b" d="M9.562,21A10.1,10.1,0,0,1,6.7,20.569V16.484a6.668,6.668,0,0,0,2.288.467c.122,0,.239-.005.348-.016,1.154-.116,1.919-.665,2.045-1.469l0,0a3.485,3.485,0,0,1-2.253.766,4.542,4.542,0,0,1-1.154-.155,3.477,3.477,0,0,1-2.636-3.708v-7.7h4.5V11.23a.7.7,0,0,0,1.394,0V4.64h4.515V14.983a6.287,6.287,0,0,1-1.216,3.874,5.311,5.311,0,0,1-3.284,1.982A8.747,8.747,0,0,1,9.562,21ZM3.909,16.69a3.852,3.852,0,0,1-2.454-.851A4.393,4.393,0,0,1,0,12.416V.346H4.56V12.461A4.082,4.082,0,0,0,6.152,16,3.646,3.646,0,0,1,3.909,16.69Zm13.143-.281h0a4.376,4.376,0,0,1-.611-.044V5.961A6,6,0,0,1,22.454,0a6.069,6.069,0,0,1,3.8,1.335,5.967,5.967,0,0,1,2.081,3.35h1.531V9.143H28.47v1.276a1.518,1.518,0,0,0,1.53,1.5v4.444A6,6,0,0,1,23.985,10.4V5.93a1.531,1.531,0,0,0-3.061,0V7.282H23.2v4.459H20.924v.391a4.393,4.393,0,0,1-1.454,3.423A3.739,3.739,0,0,1,17.051,16.409Z"/></g></svg>