<svg xmlns="http://www.w3.org/2000/svg" viewBox="0 0 80 52.001"><defs><style>.a{fill:#3535eb;}.b{fill:#fff;}</style></defs><path class="a" d="M33.177,45.917H0V0H80V45.917H45.345L39.261,52Z"/><g transform="translate(11 17)"><path class="b" d="M9.245.29V6.905c0,2.209-1,3.127-3.345,3.127S2.555,9.115,2.555,6.905V0H.3A.259.259,0,0,0,0,.29V7.014C0,10.708,2.407,12,5.9,12s5.9-1.292,5.9-4.986V0H9.541a.259.259,0,0,0-.3.29"/><path class="b" d="M8,1.953a.264.264,0,0,0,.284-.2L8.838.147C8.87.049,8.838,0,8.754,0H1C.273,0,0,.258,0,.835V11.287c0,.491.21.713.768.713H8a.265.265,0,0,0,.284-.2l.558-1.609c.032-.1,0-.147-.084-.147H2.136V7.922c0-.737.347-1.069,1.283-1.069H6.292a.264.264,0,0,0,.284-.2L7.112,5.11c.031-.1,0-.147-.084-.147H2.136V1.953H8" transform="translate(32.45)"/><path class="b" d="M7.536,12H.941C.272,12,0,11.793,0,11.288V.835C0,.242.355,0,1.224,0H6.583c2.28,0,4.612.362,4.612,3.046A2.718,2.718,0,0,1,9.739,5.675,2.808,2.808,0,0,1,11.8,8.684C11.8,11.424,9.481,12,7.536,12ZM4.186,6.8c-1.117,0-1.572.31-1.572,1.068v2.2H7.266c1.38,0,1.894-.44,1.894-1.622,0-1.016-.317-1.645-1.894-1.645ZM2.614,1.929V5H6.776c1.48,0,1.778-.588,1.778-1.536s-.3-1.535-1.778-1.535Z" transform="translate(17.7)"/><path class="b" d="M2.583,12H.305A.266.266,0,0,1,0,11.705V.835C0,.242.35,0,1.209,0H6.528a6.64,6.64,0,0,1,3.641.757A3.223,3.223,0,0,1,11.49,3.7c0,1.921-.82,3.058-2.507,3.476l2.786,4.618a.151.151,0,0,1,.018.147.134.134,0,0,1-.132.061H9.289a.35.35,0,0,1-.344-.2L6.426,7.431H4.136c-1.1,0-1.553.31-1.553,1.068V12Zm0-10.072V5.564H6.909c1.658,0,1.972-.639,1.972-1.818S8.567,1.929,6.909,1.929Z" transform="translate(47.2)"/></g></svg>