<svg xmlns="http://www.w3.org/2000/svg" viewBox="0 0 150 29"><defs><style>.a{fill:#fff;}</style></defs><path class="a" d="M46.339,4.1c-5.614,4.049-13.751,6.209-20.756,6.209A38.029,38.029,0,0,1,.227.844C-.3.379.172-.255.8.107A51.9,51.9,0,0,0,26.172,6.69,51.407,51.407,0,0,0,45.523,2.819c.95-.395,1.745.609.816,1.284" transform="translate(13.636 18.689)"/><path class="a" d="M7.113,2.586c-.725-.936-4.808-.442-6.64-.223-.558.069-.644-.421-.141-.773C3.584-.716,8.92-.051,9.542.722S9.38,6.889,6.324,9.462c-.469.4-.916.185-.707-.339.686-1.726,2.225-5.6,1.5-6.536" transform="translate(55.844 18.044)"/><path class="a" d="M.554,2.761V.557A.54.54,0,0,1,1.1,0h9.731A.545.545,0,0,1,11.4.557V2.444a3.12,3.12,0,0,1-.733,1.385l-5.043,7.3a10.623,10.623,0,0,1,5.551,1.207,1.006,1.006,0,0,1,.516.857v2.351c0,.321-.35.7-.716.5a11.075,11.075,0,0,0-10.281.017C.354,16.247,0,15.876,0,15.555V13.322a2.694,2.694,0,0,1,.358-1.515L6.2,3.314H1.116a.542.542,0,0,1-.562-.553" transform="translate(55.844 0.644)"/><path class="a" d="M3.523,16.756H.534A.565.565,0,0,1,0,16.246V.876A.562.562,0,0,1,.576.324H3.363a.563.563,0,0,1,.542.514V2.847H3.96A3.946,3.946,0,0,1,7.894,0c1.871,0,3.039.906,3.88,2.847A4.237,4.237,0,0,1,15.9,0a4.245,4.245,0,0,1,3.459,1.681c.946,1.293.752,3.172.752,4.819l0,9.7a.565.565,0,0,1-.576.556H16.549a.569.569,0,0,1-.538-.556V8.053a19.278,19.278,0,0,0-.084-2.881A1.557,1.557,0,0,0,14.17,3.85a1.985,1.985,0,0,0-1.786,1.259,9.323,9.323,0,0,0-.277,2.944V16.2a.565.565,0,0,1-.576.556H8.546a.566.566,0,0,1-.538-.556L8,8.053c0-1.714.282-4.237-1.841-4.237C4.014,3.816,4.1,6.276,4.1,8.053V16.2a.565.565,0,0,1-.576.556" transform="translate(16.883 0.644)"/><path class="a" d="M6.764,16.755A6.054,6.054,0,0,1,1.739,14.3,9.949,9.949,0,0,1,0,8.345,9.667,9.667,0,0,1,1.751,2.412,6.077,6.077,0,0,1,6.764,0a6.167,6.167,0,0,1,5.109,2.468,9.9,9.9,0,0,1,1.764,6.038,9.344,9.344,0,0,1-1.86,5.85A6.228,6.228,0,0,1,6.764,16.755ZM6.789,3.079c-2.087,0-2.354,2.56-2.354,4.791v.068a15.736,15.736,0,0,0,.291,3.556c.348,1.429,1.034,2.154,2.039,2.154,2.439,0,2.439-3.58,2.439-5.108a13.748,13.748,0,0,0-.448-4A1.871,1.871,0,0,0,6.789,3.079Z" transform="translate(68.831 0.644)"/><path class="a" d="M3.535,16.756H.545A.57.57,0,0,1,0,16.2L0,.826a.568.568,0,0,1,.579-.5H3.362A.574.574,0,0,1,3.9.754V3.1h.055C4.794,1,5.972,0,8.046,0a3.944,3.944,0,0,1,3.506,1.811c.786,1.23.786,3.3.786,4.785v9.675a.576.576,0,0,1-.579.484H8.747a.568.568,0,0,1-.532-.484V7.923c0-1.681.194-4.14-1.88-4.14A1.963,1.963,0,0,0,4.6,5.012a6.785,6.785,0,0,0-.477,2.911V16.2a.577.577,0,0,1-.587.556" transform="translate(85.065 0.644)"/><path class="a" d="M0,1.287A1.484,1.484,0,0,1,1.623,0,1.484,1.484,0,0,1,3.247,1.287,1.489,1.489,0,0,1,1.623,2.578,1.489,1.489,0,0,1,0,1.287" transform="translate(98.701 14.822)"/><path class="a" d="M.56,16.756A.564.564,0,0,1,0,16.2V.921a.556.556,0,0,1,.539-.5H1.646a.564.564,0,0,1,.577.5V3.149A4.739,4.739,0,0,1,6.332,0h.225C8.525,0,9.963,1.432,10.5,3.514,11.333,1.457,12.9,0,14.972,0H15.2a4.175,4.175,0,0,1,3.6,2.345A10.429,10.429,0,0,1,19.48,7.01l0,9.192a.562.562,0,0,1-.539.553H17.614a.576.576,0,0,1-.56-.477V7.01a7.886,7.886,0,0,0-.394-3.25,2.716,2.716,0,0,0-2.278-1.7,3.506,3.506,0,0,0-2.647,1.83,6.9,6.9,0,0,0-.785,4.05v8.346a.577.577,0,0,1-.539.469H9.1a.568.568,0,0,1-.564-.553L8.525,6.4A6.2,6.2,0,0,0,8.05,3.631,2.824,2.824,0,0,0,5.772,2.06,3.529,3.529,0,0,0,3.3,3.664,6.417,6.417,0,0,0,2.422,7.4V16.2a.569.569,0,0,1-.543.553H.56" transform="translate(130.519 0.644)"/><path class="a" d="M6.382,17.4H6.159C1.9,17.4,0,12.988,0,8.617a10.687,10.687,0,0,1,1.654-6.04A5.717,5.717,0,0,1,6.521,0h.228A5.4,5.4,0,0,1,11.43,2.679a11.165,11.165,0,0,1,1.557,5.972A10.835,10.835,0,0,1,11.3,14.77,5.786,5.786,0,0,1,6.382,17.4ZM6.467,2.1a3.612,3.612,0,0,0-3.1,2.356,11.183,11.183,0,0,0-.7,4.161,11.34,11.34,0,0,0,.809,4.559,3.543,3.543,0,0,0,3,2.1,3.6,3.6,0,0,0,3.157-2.389,10.645,10.645,0,0,0,.7-4.264,9.765,9.765,0,0,0-.9-4.554A3.652,3.652,0,0,0,6.467,2.1Z" transform="translate(115.584 0.644)"/><path class="a" d="M6.05,15.2c1.893-.06,2.887-1.609,3.3-3.615a.582.582,0,0,1,.547-.444l1.249,0a.534.534,0,0,1,.543.525C11.11,15.083,9.092,17.4,6.217,17.4H5.992C1.805,17.4,0,13.107,0,8.749,0,4.426,1.83,0,6.017,0h.226c2.908,0,4.981,2.288,5.432,5.706a.552.552,0,0,1-.51.508L9.857,6.2a.616.616,0,0,1-.5-.546C9.046,3.743,7.972,2.224,6.184,2.164c-2.845.094-3.656,3.67-3.656,6.423,0,2.65.677,6.521,3.522,6.615" transform="translate(102.597 0.644)"/><path class="a" d="M4.473,16.755A4.2,4.2,0,0,1,0,12.186,4.947,4.947,0,0,1,3.187,7.394a16.882,16.882,0,0,1,4.749-.928c.306-.031.593-.06.871-.091V6c0-.071,0-.143,0-.217a3.253,3.253,0,0,0-.367-1.906A1.973,1.973,0,0,0,6.764,3.11a2.266,2.266,0,0,0-2.4,1.761.623.623,0,0,1-.522.535L.946,5.1A.515.515,0,0,1,.5,4.487C1.281.437,5.435,0,7.185,0a7.046,7.046,0,0,1,4.5,1.46c1.337,1.225,1.328,2.854,1.318,4.579,0,.154,0,.309,0,.465v4.569a3.64,3.64,0,0,0,.95,2.483c.059.077.117.155.176.235a.544.544,0,0,1-.013.779c-.639.523-1.745,1.471-2.291,1.947l0-.009a.6.6,0,0,1-.4.146.672.672,0,0,1-.309-.076,6.343,6.343,0,0,1-1.493-1.633c-.069-.1-.142-.206-.223-.321A5.956,5.956,0,0,1,4.473,16.755ZM8.807,8.726a6.807,6.807,0,0,0-3.036.539A2.5,2.5,0,0,0,4.36,11.679c0,1.31.7,2.123,1.82,2.123A2.416,2.416,0,0,0,8.249,12.47a5.377,5.377,0,0,0,.559-2.952V8.726Z" transform="translate(39.61)"/><path class="a" d="M4.472,16.755A4.2,4.2,0,0,1,0,12.186,4.951,4.951,0,0,1,3.186,7.394a16.868,16.868,0,0,1,4.747-.928c.3-.031.593-.059.872-.091V6c0-.072,0-.145,0-.219a3.284,3.284,0,0,0-.362-1.9A1.986,1.986,0,0,0,6.766,3.11a2.269,2.269,0,0,0-2.4,1.761.619.619,0,0,1-.517.535L.946,5.1A.518.518,0,0,1,.5,4.487C1.285.437,5.435,0,7.183,0a7.04,7.04,0,0,1,4.5,1.46C13.021,2.684,13.011,4.314,13,6.039c0,.154,0,.309,0,.465v4.569a3.64,3.64,0,0,0,.95,2.483c.059.077.117.155.176.235a.541.541,0,0,1-.008.779c-.639.523-1.745,1.471-2.29,1.947l-.008-.009a.6.6,0,0,1-.4.146.672.672,0,0,1-.309-.076,6.308,6.308,0,0,1-1.478-1.615c-.073-.106-.15-.218-.236-.34A5.955,5.955,0,0,1,4.472,16.755ZM8.8,8.726a6.791,6.791,0,0,0-3.031.539,2.5,2.5,0,0,0-1.411,2.414c0,1.31.7,2.123,1.816,2.123A2.412,2.412,0,0,0,8.246,12.47,5.377,5.377,0,0,0,8.8,9.518V8.726Z"/></svg>