<svg xmlns="http://www.w3.org/2000/svg" viewBox="0 0 149.919 28.909"><defs><style>.a{fill:#fff;}</style></defs><g transform="translate(-0.004 -0.046)"><path class="a" d="M7.86,15.1A7.976,7.976,0,0,1,2.245,12.89,7.433,7.433,0,0,1,2.277,2.212,7.974,7.974,0,0,1,7.86,0a7.974,7.974,0,0,1,5.582,2.212,7.433,7.433,0,0,1,.032,10.677A7.976,7.976,0,0,1,7.86,15.1Zm0-12.027A4.4,4.4,0,0,0,3.542,7.548a4.32,4.32,0,1,0,8.635,0A4.4,4.4,0,0,0,7.86,3.074Z" transform="translate(117.523 8.783)"/><path class="a" d="M2.471,0H1.222A1.09,1.09,0,0,0,0,1.23V19.362a1.089,1.089,0,0,0,1.222,1.23H2.471a1.09,1.09,0,0,0,1.222-1.23V1.231A1.091,1.091,0,0,0,2.471,0Z" transform="translate(71.464 2.965)"/><path class="a" d="M2.471,0H1.222A1.09,1.09,0,0,0,0,1.23V13.236a1.089,1.089,0,0,0,1.222,1.23H2.471a1.09,1.09,0,0,0,1.222-1.23V1.229A1.091,1.091,0,0,0,2.471,0Z" transform="translate(110.829 9.114)"/><path class="a" d="M13.465,0h-1.2a1.346,1.346,0,0,0-1.472,1.061L7.327,10.436,3.863,1.061A1.344,1.344,0,0,0,2.391,0h-1.2C.406,0-.292.317.124,1.361l4.77,11.822c.416,1.042.833,1.271,1.671,1.271H8.086c.84,0,1.256-.228,1.671-1.271l4.77-11.822C14.944.317,14.25,0,13.465,0Z" transform="translate(36.805 9.101)"/><path class="a" d="M12.539,0H11.29a1.09,1.09,0,0,0-1.222,1.23V7.279c-.125,2.874-1.8,4.417-3.831,4.417-1.623,0-2.544-1.409-2.544-3.577V1.232A1.089,1.089,0,0,0,2.471,0H1.222A1.09,1.09,0,0,0,0,1.232V8.418c0,2.569,1.134,6.365,5.375,6.365,3.395,0,4.443-2.211,4.691-2.913v1.354a1.089,1.089,0,0,0,1.222,1.23h1.249a1.09,1.09,0,0,0,1.222-1.23V1.232A1.088,1.088,0,0,0,12.539,0Z" transform="translate(79.008 9.114)"/><path class="a" d="M1.219,14.782H2.469a1.09,1.09,0,0,0,1.222-1.23V7.5c.125-2.874,1.8-4.417,3.831-4.417,1.623,0,2.544,1.409,2.544,3.577v6.889a1.089,1.089,0,0,0,1.222,1.23h1.249a1.09,1.09,0,0,0,1.222-1.23V6.365C13.758,3.8,12.624,0,8.384,0,4.989,0,3.94,2.211,3.693,2.913V1.559A1.089,1.089,0,0,0,2.471.328H1.222A1.09,1.09,0,0,0,0,1.559V13.551A1.088,1.088,0,0,0,1.219,14.782Z" transform="translate(136.164 8.787)"/><path class="a" d="M4.647,2.139A2.138,2.138,0,0,1,2.322,4.277,2.146,2.146,0,1,1,2.325,0,2.141,2.141,0,0,1,4.647,2.139Z" transform="translate(110.355 2.721)"/><path class="a" d="M10.952,2.281a1.129,1.129,0,0,0-.046-.853A1.1,1.1,0,0,0,10.28.889,13.121,13.121,0,0,0,5.8,0C2.624,0,.417,1.786.313,4.1a4.016,4.016,0,0,0,2.32,3.811A23.71,23.71,0,0,0,6.859,9.329c.847.309,1.325.671,1.344,1.409s-.675,1.389-2.127,1.389a10.3,10.3,0,0,1-4.262-1.032,1.075,1.075,0,0,0-1.411.5l-.294.771a1.059,1.059,0,0,0,.444,1.4,11.712,11.712,0,0,0,5.389,1.321c3.591,0,5.747-1.89,5.747-4.4A3.784,3.784,0,0,0,9.4,7.137C8.375,6.59,5.582,6.032,4.636,5.531a1.42,1.42,0,0,1-.871-1.418C3.848,3.3,4.619,2.926,5.61,2.87A11.013,11.013,0,0,1,9.5,3.616a1.046,1.046,0,0,0,1.225-.684Z" transform="translate(95.86 8.775)"/><path class="a" d="M7.86,15.1a7.976,7.976,0,0,1-5.614-2.212A7.432,7.432,0,0,1,2.277,2.211,7.974,7.974,0,0,1,7.86,0a7.974,7.974,0,0,1,5.582,2.211,7.432,7.432,0,0,1,.032,10.677A7.976,7.976,0,0,1,7.86,15.1Zm0-12.026A4.4,4.4,0,0,0,3.542,7.548a4.32,4.32,0,1,0,8.635,0A4.4,4.4,0,0,0,7.86,3.074Z" transform="translate(52.622 8.783)"/><path class="a" d="M11.077,28.909a2.884,2.884,0,0,1-2.523-1.444L.392,13.392a2.866,2.866,0,0,1,0-2.892l5.224-9A2.88,2.88,0,0,1,8.15,0H24.493a2.881,2.881,0,0,1,2.522,1.461,2.85,2.85,0,0,1,0,2.884L13.6,27.465A2.885,2.885,0,0,1,11.077,28.909ZM2.912,10.886a1.063,1.063,0,0,0-.923,1.589l8.162,14.069a1.071,1.071,0,0,0,1.846,0l3.9-6.722a2.89,2.89,0,0,1-2.092-1.408L9.44,10.886Zm8.659,0L15.4,17.5a1.071,1.071,0,0,0,1.846,0l2.924-5.038a1.064,1.064,0,0,0-.928-1.571Zm7.681-1.838a2.862,2.862,0,0,1,2.261,1.1l3.9-6.718a1.063,1.063,0,0,0-.92-1.592H8.159a1.072,1.072,0,0,0-.917.535,1.061,1.061,0,0,0,0,1.057L10.5,9.05h8.749ZM5.867,4.734,3.362,9.05h5.01L5.867,4.734Z" transform="translate(0.003 0.046)"/></g></svg>